<svg width="128" height="128" viewBox="0 0 128 128" version="1" xmlns="http://www.w3.org/2000/svg">
  <path fill="#ffffff" d="M0 0L128 0 128 128 0 128 0 0Z"/>
  <path fill="#ed1c24" d="M4 4C11 4 17 4 24 4 24 11 24 17 24 24 17 24 11 24 4 24 4 17 4 11 4 4Z"/>
  <path fill="#ed1c24" d="M44 4C51 4 57 4 64 4 64 11 64 17 64 24 57 24 51 24 44 24 44 17 44 11 44 4Z"/>
  <path fill="#ed1c24" d="M84 4C91 4 97 4 104 4 104 11 104 17 104 24 97 24 91 24 84 24 84 17 84 11 84 4Z"/>
  <path fill="#ed1c24" d="M24 24C31 24 37 24 44 24 44 31 44 37 44 44 37 44 31 44 24 44 24 37 24 31 24 24Z"/>
  <path fill="#ed1c24" d="M64 24C71 24 77 24 84 24 84 31 84 37 84 44 77 44 71 44 64 44 64 37 64 31 64 24Z"/>
  <path fill="#ed1c24" d="M104 24C111 24 117 24 124 24 124 31 124 37 124 44 117 44 111 44 104 44 104 37 104 31 104 24Z"/>
  <path fill="#ed1c24" d="M4 44C11 44 17 44 24 44 24 51 24 57 24 64 17 64 11 64 4 64 4 57 4 51 4 44Z"/>
  <path fill="#ed1c24" d="M44 44C51 44 57 44 64 44 64 51 64 57 64 64 57 64 51 64 44 64 44 57 44 51 44 44Z"/>
  <path fill="#ed1c24" d="M84 44C91 44 97 44 104 44 104 51 104 57 104 64 97 64 91 64 84 64 84 57 84 51 84 44Z"/>
  <path fill="#ed1c24" d="M24 64C31 64 37 64 44 64 44 71 44 77 44 84 37 84 31 84 24 84 24 77 24 71 24 64Z"/>
  <path fill="#ed1c24" d="M64 64C71 64 77 64 84 64 84 71 84 77 84 84 77 84 71 84 64 84 64 77 64 71 64 64Z"/>
  <path fill="#ed1c24" d="M104 64C111 64 117 64 124 64 124 71 124 77 124 84 117 84 111 84 104 84 104 77 104 71 104 64Z"/>
  <path fill="#ed1c24" d="M4 84C11 84 17 84 24 84 24 91 24 97 24 104 17 104 11 104 4 104 4 97 4 91 4 84Z"/>
  <path fill="#ed1c24" d="M44 84C51 84 57 84 64 84 64 91 64 97 64 104 57 104 51 104 44 104 44 97 44 91 44 84Z"/>
  <path fill="#ed1c24" d="M84 84C91 84 97 84 104 84 104 91 104 97 104 104 97 104 91 104 84 104 84 97 84 91 84 84Z"/>
  <path fill="#ed1c24" d="M24 104C31 104 37 104 44 104 44 111 44 117 44 124 37 124 31 124 24 124 24 117 24 111 24 104Z"/>
  <path fill="#ed1c24" d="M64 104C71 104 77 104 84 104 84 111 84 117 84 124 77 124 71 124 64 124 64 117 64 111 64 104Z"/>
  <path fill="#ed1c24" d="M104 104C111 104 117 104 124 104 124 111 124 117 124 124 117 124 111 124 104 124 104 117 104 111 104 104Z"/>
</svg>
